<svg width="36" height="36" viewBox="0 0 36 36" fill="none" xmlns="http://www.w3.org/2000/svg">
<path fill-rule="evenodd" clip-rule="evenodd" d="M36 27.2308C36 32.0739 32.0739 36 27.2308 36H8.76923C3.92612 36 0 32.0739 0 27.2308V8.76923C0 3.92612 3.92612 0 8.76923 0H27.2308C32.0739 0 36 3.92612 36 8.76923V27.2308ZM8.15033 26.6227C7.46636 26.2808 7.18913 25.4491 7.53111 24.7651L10.9138 17.9997L7.53111 11.2343C7.18913 10.5503 7.46636 9.71863 8.15033 9.37664C8.8343 9.03466 9.666 9.31189 10.008 9.99586L12.4619 14.9036L14.9157 9.99586C15.2577 9.31189 16.0894 9.03466 16.7734 9.37664C17.4574 9.71863 17.7346 10.5503 17.3926 11.2343L14.0099 17.9997L17.3926 24.7651C17.7346 25.4491 17.4574 26.2808 16.7734 26.6227C16.0894 26.9647 15.2577 26.6875 14.9157 26.0035L12.4619 21.0958L10.008 26.0035C9.666 26.6875 8.8343 26.9647 8.15033 26.6227ZM23.5384 19.3846H25.8461V24H23.5384C22.2639 24 21.2308 22.9668 21.2308 21.6923C21.2308 20.4178 22.2639 19.3846 23.5384 19.3846ZM23.5384 26.7692C20.7345 26.7692 18.4615 24.4962 18.4615 21.6923C18.4615 18.8884 20.7345 16.6154 23.5384 16.6154H25.8461V12.4615C25.8461 11.6968 26.4661 11.0769 27.2308 11.0769C27.9955 11.0769 28.6154 11.6968 28.6154 12.4615V24.2769C28.6154 25.6534 27.4995 26.7692 26.1231 26.7692H23.5384Z" fill="#232121"/>
</svg>
