<svg width="19" height="26" viewBox="0 0 19 26" fill="none" xmlns="http://www.w3.org/2000/svg">
<path fill-rule="evenodd" clip-rule="evenodd" d="M9.5 26C9.77991 26 10.0484 25.9022 10.2463 25.728C10.4442 25.5539 10.5554 25.3177 10.5554 25.0715V3.1716L17.196 9.01566C17.3942 9.19001 17.663 9.28795 17.9433 9.28795C18.2235 9.28795 18.4923 9.19001 18.6905 9.01566C18.8887 8.84131 19 8.60484 19 8.35827C19 8.1117 18.8887 7.87523 18.6905 7.70088L10.2472 0.272785C10.1492 0.186316 10.0327 0.117712 9.9045 0.0709035C9.77628 0.0240945 9.63882 0 9.5 0C9.36118 0 9.22372 0.0240945 9.0955 0.0709035C8.96728 0.117712 8.85081 0.186316 8.75277 0.272785L0.309512 7.70088C0.211384 7.78721 0.133546 7.8897 0.0804397 8.00249C0.0273335 8.11529 0 8.23618 0 8.35827C0 8.60484 0.111335 8.84131 0.309512 9.01566C0.507689 9.19001 0.776476 9.28795 1.05674 9.28795C1.33701 9.28795 1.60579 9.19001 1.80397 9.01566L8.44459 3.1716V25.0715C8.44459 25.3177 8.55579 25.5539 8.75372 25.728C8.95164 25.9022 9.22009 26 9.5 26Z" fill="#232121"/>
</svg>
