<svg width="15" height="18" viewBox="0 0 15 18" fill="none" xmlns="http://www.w3.org/2000/svg">
<path fill-rule="evenodd" clip-rule="evenodd" d="M7.5 18C7.72098 18 7.93292 17.9323 8.08917 17.8117C8.24543 17.6912 8.33322 17.5277 8.33322 17.3572V2.19572L13.5758 6.24161C13.7323 6.36231 13.9445 6.43012 14.1657 6.43012C14.387 6.43012 14.5992 6.36231 14.7556 6.24161C14.9121 6.1209 15 5.95719 15 5.78649C15 5.61579 14.9121 5.45208 14.7556 5.33138L8.08992 0.188851C8.01252 0.128988 7.92057 0.0814933 7.81934 0.049087C7.71812 0.0166808 7.6096 0 7.5 0C7.3904 0 7.28188 0.0166808 7.18066 0.049087C7.07943 0.0814933 6.98748 0.128988 6.91008 0.188851L0.244352 5.33138C0.166882 5.39115 0.105431 5.4621 0.063505 5.54019C0.0215791 5.61828 0 5.70197 0 5.78649C0 5.95719 0.0878957 6.1209 0.244352 6.24161C0.400807 6.36231 0.613007 6.43012 0.834269 6.43012C1.05553 6.43012 1.26773 6.36231 1.42419 6.24161L6.66678 2.19572V17.3572C6.66678 17.5277 6.75457 17.6912 6.91083 17.8117C7.06709 17.9323 7.27902 18 7.5 18Z" fill="#232121"/>
</svg>
