<svg width="25" height="20" viewBox="0 0 25 20" fill="none" xmlns="http://www.w3.org/2000/svg">
<path d="M7.272 0C7.99232 0 8.65796 0.0696514 9.26891 0.278605C9.87829 0.417908 10.3799 0.708452 10.8252 1.05671C11.2705 1.40496 11.6018 1.90446 11.8268 2.54326C12.0455 3.18008 12.1643 3.95818 12.1643 4.80593C12.1643 5.79299 11.9986 6.64075 11.608 7.27756C11.2721 7.91437 10.7236 8.48352 10.0502 8.90342C10.9971 9.25366 11.7174 9.89047 12.1565 10.7382C12.5955 11.586 12.8768 12.6427 12.8768 13.8487C12.8768 14.8357 12.7127 15.6835 12.4315 16.3919C12.1519 17.1059 11.7307 17.7144 11.2096 18.1571C10.7096 18.5849 10.0986 18.9332 9.43297 19.1441C8.78102 19.364 8.11041 19.4816 7.43606 19.4944L0 19.5083V0H7.272ZM6.82668 7.91636C7.43606 7.91636 7.93607 7.7074 8.32201 7.3492C8.7064 6.99099 8.87671 6.36015 8.87671 5.58404C8.87671 5.15419 8.82202 4.73628 8.71265 4.45569C8.59326 4.17219 8.42169 3.92978 8.21264 3.74923C7.98629 3.59091 7.74391 3.47306 7.49231 3.39898C7.21731 3.32933 6.93605 3.32933 6.60636 3.32933H3.39068V7.92631C3.39068 7.91636 6.82668 7.91636 6.82668 7.91636ZM6.99074 16.2606C7.32669 16.2606 7.65638 16.1909 7.93763 16.1213C8.21264 16.0516 8.49389 15.9103 8.71265 15.6914C8.9314 15.4725 9.10328 15.2636 9.26891 14.9153C9.37828 14.5651 9.48766 14.1372 9.48766 13.6397C9.48766 12.6526 9.26891 11.9442 8.82202 11.4467C8.3767 11.0188 7.76576 10.8099 7.04543 10.8099H3.39068V16.2506H6.9923L6.99074 16.2606ZM17.7065 16.1909C18.1524 16.7574 18.818 17.04 19.7035 17.0387C20.3128 17.0387 20.8691 16.8277 21.316 16.4695C21.7597 16.045 22.0358 15.6204 22.1441 15.1959H24.8629C24.416 16.8894 23.7504 18.0954 22.866 18.8735C21.9816 19.58 20.9238 19.9999 19.6472 19.9999C18.8308 20.0062 18.0209 19.8137 17.2612 19.4327C16.5764 19.1108 15.9656 18.5759 15.4846 17.8765C14.9703 17.226 14.5884 16.4253 14.3721 15.5442C14.0987 14.6268 13.9815 13.6397 13.9815 12.5034C13.9815 11.4467 14.0909 10.4497 14.3721 9.53227C14.6534 8.61685 15.0378 7.83676 15.5393 7.1303C16.0393 6.49348 16.6503 5.92433 17.3159 5.57409C18.0579 5.19688 18.8498 5.00435 19.6488 5.00693C20.5957 5.00693 21.4254 5.21588 22.1457 5.71339C22.8644 6.2109 23.4223 6.77209 23.8676 7.61984C24.3129 8.39596 24.6426 9.31336 24.8692 10.3024C24.9785 11.2895 25.0332 12.2845 24.9785 13.4128H16.9315C16.9315 14.5671 17.2597 15.6218 17.7065 16.1909ZM21.2066 8.76411C20.816 8.2666 20.2035 7.98601 19.4831 7.98601C18.9831 7.98601 18.5987 8.12531 18.2628 8.33626C17.9269 8.5472 17.7065 8.83376 17.4878 9.11237C17.2838 9.38572 17.1479 9.72986 17.0972 10.1014C17.0409 10.4497 16.9878 10.7382 16.9878 11.0168H21.9816C21.8722 9.97007 21.5925 9.26162 21.2066 8.76411ZM16.3206 1.34526H22.5363V3.24973H16.3206V1.34526Z" fill="black"/>
</svg>
