<svg width="44" height="44" viewBox="0 0 44 44" fill="none" xmlns="http://www.w3.org/2000/svg">
<path d="M0.918084 0.918084C1.20837 0.627064 1.55322 0.39617 1.93287 0.23863C2.31253 0.0810899 2.71954 0 3.13058 0C3.54163 0 3.94864 0.0810899 4.3283 0.23863C4.70795 0.39617 5.0528 0.627064 5.34309 0.918084L21.8806 17.4618L38.4181 0.918084C38.7086 0.627535 39.0536 0.397058 39.4332 0.239813C39.8128 0.082569 40.2197 0.00163615 40.6306 0.00163615C41.0415 0.00163615 41.4484 0.082569 41.828 0.239813C42.2076 0.397058 42.5525 0.627535 42.8431 0.918084C43.1336 1.20863 43.3641 1.55357 43.5214 1.93319C43.6786 2.31281 43.7595 2.71969 43.7595 3.13058C43.7595 3.54148 43.6786 3.94836 43.5214 4.32798C43.3641 4.7076 43.1336 5.05254 42.8431 5.34309L26.2993 21.8806L42.8431 38.4181C43.1336 38.7086 43.3641 39.0536 43.5214 39.4332C43.6786 39.8128 43.7595 40.2197 43.7595 40.6306C43.7595 41.0415 43.6786 41.4484 43.5214 41.828C43.3641 42.2076 43.1336 42.5525 42.8431 42.8431C42.5525 43.1336 42.2076 43.3641 41.828 43.5214C41.4484 43.6786 41.0415 43.7595 40.6306 43.7595C40.2197 43.7595 39.8128 43.6786 39.4332 43.5214C39.0536 43.3641 38.7086 43.1336 38.4181 42.8431L21.8806 26.2993L5.34309 42.8431C5.05254 43.1336 4.7076 43.3641 4.32798 43.5214C3.94836 43.6786 3.54148 43.7595 3.13058 43.7595C2.71969 43.7595 2.31281 43.6786 1.93319 43.5214C1.55357 43.3641 1.20863 43.1336 0.918084 42.8431C0.627535 42.5525 0.397058 42.2076 0.239813 41.828C0.082569 41.4484 0.00163615 41.0415 0.00163615 40.6306C0.00163615 40.2197 0.082569 39.8128 0.239813 39.4332C0.397058 39.0536 0.627535 38.7086 0.918084 38.4181L17.4618 21.8806L0.918084 5.34309C0.627064 5.0528 0.39617 4.70795 0.23863 4.3283C0.0810899 3.94864 0 3.54163 0 3.13058C0 2.71954 0.0810899 2.31253 0.23863 1.93287C0.39617 1.55322 0.627064 1.20837 0.918084 0.918084Z" fill="#232121"/>
</svg>
