<svg width="15" height="11" viewBox="0 0 15 11" fill="none" xmlns="http://www.w3.org/2000/svg">
<path fill-rule="evenodd" clip-rule="evenodd" d="M0 5.5C0 5.33795 0.0564375 5.18253 0.156897 5.06794C0.257357 4.95335 0.393609 4.88897 0.53568 4.88897H13.1702L9.79866 1.0444C9.69807 0.929669 9.64157 0.774056 9.64157 0.611797C9.64157 0.449538 9.69807 0.293925 9.79866 0.179191C9.89925 0.0644569 10.0357 3.82295e-09 10.1779 0C10.3202 -3.82295e-09 10.4566 0.0644569 10.5572 0.179191L14.8426 5.06739C14.8925 5.12415 14.9321 5.19158 14.9591 5.26581C14.9861 5.34005 15 5.41963 15 5.5C15 5.58037 14.9861 5.65995 14.9591 5.73419C14.9321 5.80842 14.8925 5.87585 14.8426 5.93261L10.5572 10.8208C10.4566 10.9355 10.3202 11 10.1779 11C10.0357 11 9.89925 10.9355 9.79866 10.8208C9.69807 10.7061 9.64157 10.5505 9.64157 10.3882C9.64157 10.2259 9.69807 10.0703 9.79866 9.9556L13.1702 6.11103H0.53568C0.393609 6.11103 0.257357 6.04665 0.156897 5.93206C0.0564375 5.81747 0 5.66205 0 5.5Z" fill="#232121"/>
</svg>
