<svg width="20" height="20" viewBox="0 0 20 20" fill="none" xmlns="http://www.w3.org/2000/svg">
<circle cx="10" cy="10" r="10" fill="#F5F3F0"/>
<path d="M9.046 7.067V11.232C9.046 11.81 8.87883 12.2605 8.5445 12.5835C8.21017 12.9008 7.7625 13.0595 7.2015 13.0595C6.63483 13.0595 6.17583 12.8952 5.8245 12.5665C5.47883 12.2378 5.306 11.7788 5.306 11.1895H6.496C6.50167 11.4445 6.56117 11.6428 6.6745 11.7845C6.7935 11.9262 6.9635 11.997 7.1845 11.997C7.39983 11.997 7.56417 11.929 7.6775 11.793C7.79083 11.657 7.8475 11.47 7.8475 11.232V7.067H9.046ZM14.7607 8.903C14.7607 9.22033 14.6842 9.51783 14.5312 9.7955C14.3838 10.0732 14.1487 10.297 13.8257 10.467C13.5083 10.637 13.106 10.722 12.6187 10.722H11.6242V13H10.4342V7.067H12.6187C13.0777 7.067 13.4687 7.14633 13.7917 7.305C14.1147 7.46367 14.3555 7.68183 14.5142 7.9595C14.6785 8.23717 14.7607 8.55167 14.7607 8.903ZM12.5677 9.7615C12.8963 9.7615 13.14 9.68783 13.2987 9.5405C13.4573 9.3875 13.5367 9.175 13.5367 8.903C13.5367 8.325 13.2137 8.036 12.5677 8.036H11.6242V9.7615H12.5677Z" fill="#232121"/>
</svg>
