<svg width="36" height="36" viewBox="0 0 22 30" fill="none" xmlns="http://www.w3.org/2000/svg">
<path d="M11 1.5H6.5C5.30653 1.5 4.16193 1.97411 3.31802 2.81802C2.47411 3.66193 2 4.80653 2 6C2 7.19347 2.47411 8.33807 3.31802 9.18198C4.16193 10.0259 5.30653 10.5 6.5 10.5M11 1.5V10.5M11 1.5H15.5C16.0909 1.5 16.6761 1.6164 17.2221 1.84254C17.768 2.06869 18.2641 2.40016 18.682 2.81802C19.0998 3.23588 19.4313 3.73196 19.6575 4.27792C19.8836 4.82389 20 5.40905 20 6C20 6.59095 19.8836 7.17611 19.6575 7.72208C19.4313 8.26804 19.0998 8.76412 18.682 9.18198C18.2641 9.59984 17.768 9.93131 17.2221 10.1575C16.6761 10.3836 16.0909 10.5 15.5 10.5M11 10.5H6.5M11 10.5H15.5M11 10.5V19.5M6.5 10.5C5.30653 10.5 4.16193 10.9741 3.31802 11.818C2.47411 12.6619 2 13.8065 2 15C2 16.1935 2.47411 17.3381 3.31802 18.182C4.16193 19.0259 5.30653 19.5 6.5 19.5M15.5 10.5C14.9091 10.5 14.3239 10.6164 13.7779 10.8425C13.232 11.0687 12.7359 11.4002 12.318 11.818C11.9002 12.2359 11.5687 12.732 11.3425 13.2779C11.1164 13.8239 11 14.4091 11 15C11 15.5909 11.1164 16.1761 11.3425 16.7221C11.5687 17.268 11.9002 17.7641 12.318 18.182C12.7359 18.5998 13.232 18.9313 13.7779 19.1575C14.3239 19.3836 14.9091 19.5 15.5 19.5C16.0909 19.5 16.6761 19.3836 17.2221 19.1575C17.768 18.9313 18.2641 18.5998 18.682 18.182C19.0998 17.7641 19.4313 17.268 19.6575 16.7221C19.8836 16.1761 20 15.5909 20 15C20 14.4091 19.8836 13.8239 19.6575 13.2779C19.4313 12.732 19.0998 12.2359 18.682 11.818C18.2641 11.4002 17.768 11.0687 17.2221 10.8425C16.6761 10.6164 16.0909 10.5 15.5 10.5ZM6.5 19.5C5.30653 19.5 4.16193 19.9741 3.31802 20.818C2.47411 21.6619 2 22.8065 2 24C2 25.1935 2.47411 26.3381 3.31802 27.182C4.16193 28.0259 5.30653 28.5 6.5 28.5C7.69347 28.5 8.83807 28.0259 9.68198 27.182C10.5259 26.3381 11 25.1935 11 24V19.5M6.5 19.5H11" stroke="#232121" stroke-width="3" stroke-linecap="round" stroke-linejoin="round"/>
</svg>
