<svg width="36" height="36" viewBox="0 0 36 36" fill="none" xmlns="http://www.w3.org/2000/svg">
<path d="M35.3186 16.3957L19.5998 0.679197C19.3846 0.463872 19.129 0.293061 18.8478 0.176522C18.5665 0.0599829 18.2651 0 17.9606 0C17.6562 0 17.3547 0.0599829 17.0735 0.176522C16.7922 0.293061 16.5367 0.463872 16.3215 0.679197L13.0589 3.94175L17.199 8.08183C17.6873 7.91512 18.2126 7.88904 18.7149 8.00656C19.2173 8.12408 19.6765 8.38047 20.0402 8.74647C20.4038 9.11247 20.6573 9.57333 20.7716 10.0765C20.8859 10.5796 20.8564 11.1047 20.6865 11.5919L24.6759 15.5835C25.2661 15.3756 25.9095 15.375 26.5001 15.5817C27.0907 15.7883 27.5933 16.1899 27.9252 16.7204C28.2571 17.2509 28.3985 17.8785 28.326 18.5C28.2536 19.1216 27.9717 19.6999 27.5267 20.1398C27.0762 20.593 26.4823 20.8758 25.8465 20.9398C25.2106 21.0039 24.5723 20.8451 24.0405 20.4908C23.5087 20.1364 23.1164 19.6084 22.9307 18.997C22.7449 18.3855 22.7772 17.7285 23.0221 17.1382L19.3028 13.4167V23.2111C19.8681 23.4909 20.3205 23.9561 20.5844 24.529C20.8484 25.1019 20.908 25.748 20.7534 26.3596C20.5987 26.9711 20.2392 27.5112 19.7346 27.8898C19.23 28.2684 18.611 28.4626 17.9806 28.4401C17.3501 28.4176 16.7465 28.1797 16.2702 27.7661C15.794 27.3525 15.4738 26.7881 15.3632 26.1671C15.2526 25.546 15.3582 24.9059 15.6623 24.3532C15.9665 23.8006 16.4509 23.3689 17.0347 23.1301V13.2457C16.6979 13.1076 16.3917 12.9043 16.1338 12.6474C15.8759 12.3904 15.6714 12.085 15.5321 11.7487C15.3928 11.4123 15.3214 11.0518 15.3221 10.6877C15.3228 10.3237 15.3956 9.96339 15.5362 9.6276L11.4569 5.54603L0.679197 16.3237C0.463872 16.5389 0.293061 16.7945 0.176522 17.0757C0.0599829 17.357 0 17.6584 0 17.9629C0 18.2673 0.0599829 18.5688 0.176522 18.85C0.293061 19.1313 0.463872 19.3868 0.679197 19.602L16.398 35.3208C16.6132 35.5361 16.8687 35.7069 17.15 35.8235C17.4312 35.94 17.7327 36 18.0371 36C18.3416 36 18.643 35.94 18.9243 35.8235C19.2055 35.7069 19.4611 35.5361 19.6763 35.3208L35.3208 19.6763C35.5361 19.4611 35.7069 19.2055 35.8235 18.9243C35.94 18.643 36 18.3416 36 18.0371C36 17.7327 35.94 17.4312 35.8235 17.15C35.7069 16.8687 35.5361 16.6132 35.3208 16.398" fill="#232121"/>
</svg>
