<svg width="36" height="36" viewBox="0 0 36 36" fill="none" xmlns="http://www.w3.org/2000/svg">
<g clip-path="url(#clip0_47_2)">
<path d="M35.3205 16.3957L19.602 0.679498C19.3868 0.464177 19.1313 0.293369 18.85 0.176832C18.5688 0.0602947 18.2673 0.000312805 17.9629 0.000312805C17.6584 0.000312805 17.357 0.0602947 17.0757 0.176832C16.7945 0.293369 16.539 0.464177 16.3237 0.679498L13.0612 3.942L17.2012 8.082C17.6895 7.91529 18.2148 7.88921 18.7172 8.00673C19.2195 8.12425 19.6788 8.38064 20.0424 8.74663C20.406 9.11262 20.6595 9.57347 20.7738 10.0766C20.888 10.5797 20.8586 11.1048 20.6887 11.592L24.678 15.5835C25.2682 15.3757 25.9116 15.3751 26.5022 15.5817C27.0928 15.7884 27.5954 16.19 27.9273 16.7204C28.2592 17.2509 28.4006 17.8785 28.3281 18.5C28.2557 19.1215 27.9737 19.6999 27.5287 20.1397C27.0783 20.593 26.4844 20.8758 25.8486 20.9398C25.2127 21.0038 24.5744 20.8451 24.0426 20.4907C23.5108 20.1364 23.1186 19.6084 22.9328 18.9969C22.7471 18.3855 22.7794 17.7285 23.0242 17.1382L19.305 13.4167V23.211C19.8703 23.4908 20.3227 23.956 20.5866 24.5289C20.8506 25.1018 20.9102 25.7479 20.7556 26.3594C20.601 26.971 20.2414 27.5111 19.7368 27.8896C19.2323 28.2682 18.6132 28.4625 17.9828 28.4399C17.3524 28.4174 16.7488 28.1795 16.2725 27.7659C15.7962 27.3523 15.4761 26.7879 15.3655 26.1669C15.2549 25.5459 15.3605 24.9057 15.6646 24.3531C15.9688 23.8005 16.4531 23.3688 17.037 23.13V13.2457C16.7001 13.1077 16.3939 12.9044 16.1361 12.6475C15.8782 12.3905 15.6737 12.0851 15.5344 11.7488C15.3951 11.4125 15.3237 11.0519 15.3244 10.6879C15.3251 10.3238 15.3979 9.96353 15.5385 9.62775L11.4592 5.54625L0.681749 16.3237C0.466427 16.539 0.295619 16.7945 0.179082 17.0757C0.0625454 17.357 0.00256348 17.6584 0.00256348 17.9629C0.00256348 18.2673 0.0625454 18.5688 0.179082 18.85C0.295619 19.1313 0.466427 19.3868 0.681749 19.602L16.4002 35.3205C16.6155 35.5358 16.871 35.7066 17.1522 35.8232C17.4335 35.9397 17.7349 35.9997 18.0394 35.9997C18.3438 35.9997 18.6453 35.9397 18.9265 35.8232C19.2078 35.7066 19.4633 35.5358 19.6785 35.3205L35.3228 19.6762C35.5381 19.461 35.7089 19.2055 35.8254 18.9243C35.942 18.643 36.0019 18.3416 36.0019 18.0371C36.0019 17.7327 35.942 17.4312 35.8254 17.15C35.7089 16.8687 35.5381 16.6132 35.3228 16.398" fill="#232121"/>
</g>
<defs>
<clipPath id="clip0_47_2">
<rect width="36" height="36" fill="white"/>
</clipPath>
</defs>
</svg>
