<svg width="25" height="20" viewBox="0 0 25 20" fill="none" xmlns="http://www.w3.org/2000/svg">
<path fill-rule="evenodd" clip-rule="evenodd" d="M0 18.8889C0 18.5942 0.119724 18.3116 0.332833 18.1032C0.545943 17.8948 0.834981 17.7778 1.13636 17.7778H23.8636C24.165 17.7778 24.4541 17.8948 24.6672 18.1032C24.8803 18.3116 25 18.5942 25 18.8889C25 19.1836 24.8803 19.4662 24.6672 19.6746C24.4541 19.8829 24.165 20 23.8636 20H1.13636C0.834981 20 0.545943 19.8829 0.332833 19.6746C0.119724 19.4662 0 19.1836 0 18.8889ZM0 10C0 9.70532 0.119724 9.4227 0.332833 9.21433C0.545943 9.00595 0.834981 8.88889 1.13636 8.88889H23.8636C24.165 8.88889 24.4541 9.00595 24.6672 9.21433C24.8803 9.4227 25 9.70532 25 10C25 10.2947 24.8803 10.5773 24.6672 10.7857C24.4541 10.994 24.165 11.1111 23.8636 11.1111H1.13636C0.834981 11.1111 0.545943 10.994 0.332833 10.7857C0.119724 10.5773 0 10.2947 0 10ZM0 1.11111C0 0.816426 0.119724 0.533811 0.332833 0.325437C0.545943 0.117063 0.834981 0 1.13636 0H23.8636C24.165 0 24.4541 0.117063 24.6672 0.325437C24.8803 0.533811 25 0.816426 25 1.11111C25 1.4058 24.8803 1.68841 24.6672 1.89679C24.4541 2.10516 24.165 2.22222 23.8636 2.22222H1.13636C0.834981 2.22222 0.545943 2.10516 0.332833 1.89679C0.119724 1.68841 0 1.4058 0 1.11111Z" fill="#232121"/>
</svg>
