<svg width="36" height="36" viewBox="0 0 30 30" fill="none" xmlns="http://www.w3.org/2000/svg">
<path d="M8.625 13.875H10.5C11.5355 13.875 12.375 13.0355 12.375 12C12.375 10.9645 11.5355 10.125 10.5 10.125L8.625 10.125V13.875Z" fill="#232121"/>
<path fill-rule="evenodd" clip-rule="evenodd" d="M29.625 22.5C29.625 26.435 26.435 29.625 22.5 29.625H7.5C3.56497 29.625 0.375 26.435 0.375 22.5V7.5C0.375 3.56497 3.56497 0.375 7.5 0.375H22.5C26.435 0.375 29.625 3.56497 29.625 7.5V22.5ZM6.375 21V9C6.375 8.70163 6.49353 8.41548 6.70451 8.20451C6.91548 7.99353 7.20163 7.875 7.5 7.875H10.5C12.7782 7.875 14.625 9.72183 14.625 12C14.625 14.2782 12.7782 16.125 10.5 16.125H8.625V21C8.625 21.6213 8.12132 22.125 7.5 22.125C6.87868 22.125 6.375 21.6213 6.375 21ZM21.4935 14.0031C21.7714 14.5588 22.4471 14.7841 23.0029 14.5062C23.5586 14.2284 23.7838 13.5526 23.506 12.9969C22.8558 11.6965 21.5266 10.875 20.0727 10.875H19.4998C17.6358 10.875 16.1248 12.386 16.1248 14.25C16.1248 16.114 17.6358 17.625 19.4998 17.625H20.2498C20.8711 17.625 21.3748 18.1287 21.3748 18.75C21.3748 19.3713 20.8711 19.875 20.2498 19.875H19.6768C19.0751 19.875 18.5251 19.5351 18.256 18.9969C17.9781 18.4412 17.3024 18.2159 16.7466 18.4938C16.1909 18.7716 15.9657 19.4474 16.2435 20.0031C16.8937 21.3035 18.2229 22.125 19.6768 22.125H20.2498C22.1137 22.125 23.6248 20.614 23.6248 18.75C23.6248 16.886 22.1137 15.375 20.2498 15.375H19.4998C18.8784 15.375 18.3748 14.8713 18.3748 14.25C18.3748 13.6287 18.8784 13.125 19.4998 13.125H20.0727C20.6744 13.125 21.2244 13.4649 21.4935 14.0031Z" fill="#232121"/>
</svg>
